<svg width="20" height="21" viewBox="0 0 20 21" fill="none" xmlns="http://www.w3.org/2000/svg">
<path d="M17.5 10.5C17.5 10.6657 17.4342 10.8247 17.3169 10.9419C17.1997 11.0591 17.0408 11.125 16.875 11.125H4.6336L9.19219 15.6828C9.25026 15.7409 9.29632 15.8098 9.32775 15.8857C9.35918 15.9615 9.37535 16.0429 9.37535 16.125C9.37535 16.2071 9.35918 16.2884 9.32775 16.3643C9.29632 16.4402 9.25026 16.5091 9.19219 16.5672C9.13412 16.6252 9.06519 16.6713 8.98931 16.7027C8.91344 16.7342 8.83213 16.7503 8.75 16.7503C8.66788 16.7503 8.58656 16.7342 8.51069 16.7027C8.43482 16.6713 8.36589 16.6252 8.30782 16.5672L2.68282 10.9422C2.62471 10.8841 2.57861 10.8152 2.54715 10.7393C2.5157 10.6634 2.49951 10.5821 2.49951 10.5C2.49951 10.4178 2.5157 10.3365 2.54715 10.2606C2.57861 10.1848 2.62471 10.1158 2.68282 10.0578L8.30782 4.43279C8.42509 4.31552 8.58415 4.24963 8.75 4.24963C8.91586 4.24963 9.07492 4.31552 9.19219 4.43279C9.30947 4.55007 9.37535 4.70913 9.37535 4.87498C9.37535 5.04083 9.30947 5.19989 9.19219 5.31717L4.6336 9.87498H16.875C17.0408 9.87498 17.1997 9.94083 17.3169 10.058C17.4342 10.1753 17.5 10.3342 17.5 10.5Z" fill="#667085"/>
</svg>
