<svg width="140" height="33" viewBox="0 0 140 33" fill="none" xmlns="http://www.w3.org/2000/svg">
<rect x="0.396484" y="3.37231" width="12.2377" height="12.2377" rx="1.78003" fill="#EC892B"/>
<rect x="0.396484" y="17.3901" width="19.3578" height="12.2377" rx="1.78003" fill="#EC892B"/>
<path d="M28.701 26V6.84244H38.0608C40.4692 6.84244 42.2755 7.29857 43.4797 8.21084C44.7021 9.1231 45.3133 10.3273 45.3133 11.8234C45.3133 12.8269 45.067 13.7027 44.5744 14.4507C44.0818 15.1805 43.4067 15.7461 42.5492 16.1475C41.6916 16.5489 40.7064 16.7496 39.5934 16.7496L40.1134 15.6276C41.3176 15.6276 42.385 15.8282 43.3155 16.2296C44.246 16.6128 44.9667 17.1875 45.4775 17.9538C46.0066 18.7201 46.2712 19.6598 46.2712 20.7727C46.2712 22.4148 45.6235 23.7011 44.3281 24.6316C43.0327 25.5439 41.126 26 38.6082 26H28.701ZM33.1072 22.6611H38.2798C39.4292 22.6611 40.2959 22.4787 40.8797 22.1138C41.4818 21.7306 41.7829 21.1285 41.7829 20.3075C41.7829 19.5047 41.4818 18.9117 40.8797 18.5286C40.2959 18.1272 39.4292 17.9265 38.2798 17.9265H32.7788V14.697H37.5135C38.5899 14.697 39.411 14.5146 39.9766 14.1497C40.5604 13.7665 40.8523 13.1918 40.8523 12.4255C40.8523 11.6774 40.5604 11.121 39.9766 10.7561C39.411 10.3729 38.5899 10.1813 37.5135 10.1813H33.1072V22.6611ZM49.6278 26V6.84244H57.9203C59.6354 6.84244 61.1132 7.12524 62.3539 7.69085C63.5946 8.23821 64.5525 9.03188 65.2276 10.0719C65.9026 11.1118 66.2402 12.3525 66.2402 13.7939C66.2402 15.217 65.9026 16.4486 65.2276 17.4886C64.5525 18.5103 63.5946 19.2949 62.3539 19.8422C61.1132 20.3896 59.6354 20.6633 57.9203 20.6633H52.091L54.0614 18.7201V26H49.6278ZM61.8066 26L57.0172 19.0485H61.7518L66.596 26H61.8066ZM54.0614 19.2128L52.091 17.1328H57.674C59.0424 17.1328 60.0641 16.8409 60.7392 16.257C61.4143 15.6549 61.7518 14.8339 61.7518 13.7939C61.7518 12.7357 61.4143 11.9146 60.7392 11.3308C60.0641 10.7469 59.0424 10.455 57.674 10.455H52.091L54.0614 8.34768V19.2128ZM69.7529 26V6.84244H74.1865V26H69.7529ZM87.9013 26.3284C86.4234 26.3284 85.0459 26.0912 83.7687 25.6168C82.5098 25.1242 81.4151 24.4309 80.4845 23.5369C79.554 22.6429 78.8242 21.5938 78.2951 20.3896C77.7842 19.1854 77.5288 17.8626 77.5288 16.4212C77.5288 14.9798 77.7842 13.6571 78.2951 12.4529C78.8242 11.2487 79.554 10.1996 80.4845 9.30556C81.4333 8.41154 82.5371 7.72734 83.7961 7.25296C85.055 6.76034 86.4325 6.51403 87.9286 6.51403C89.589 6.51403 91.0851 6.80595 92.417 7.3898C93.7671 7.9554 94.8983 8.79469 95.8106 9.90765L92.9643 12.535C92.3075 11.7869 91.5777 11.2304 90.7749 10.8655C89.9721 10.4824 89.0963 10.2908 88.1476 10.2908C87.2536 10.2908 86.4325 10.4368 85.6845 10.7287C84.9364 11.0206 84.2887 11.4403 83.7413 11.9876C83.194 12.535 82.7652 13.1827 82.455 13.9307C82.1631 14.6788 82.0172 15.509 82.0172 16.4212C82.0172 17.3335 82.1631 18.1636 82.455 18.9117C82.7652 19.6598 83.194 20.3075 83.7413 20.8548C84.2887 21.4022 84.9364 21.8218 85.6845 22.1138C86.4325 22.4057 87.2536 22.5516 88.1476 22.5516C89.0963 22.5516 89.9721 22.3692 90.7749 22.0043C91.5777 21.6211 92.3075 21.0464 92.9643 20.2801L95.8106 22.9074C94.8983 24.0204 93.7671 24.8688 92.417 25.4526C91.0851 26.0365 89.5798 26.3284 87.9013 26.3284ZM102.773 21.6211L102.527 16.5033L111.695 6.84244H116.621L108.356 15.737L105.893 18.3643L102.773 21.6211ZM98.8046 26V6.84244H103.211V26H98.8046ZM111.914 26L105.099 17.6528L108 14.5055L117.086 26H111.914ZM127.674 26.3284C126.159 26.3284 124.754 26.0821 123.459 25.5895C122.182 25.0969 121.069 24.4035 120.12 23.5095C119.189 22.6155 118.46 21.5664 117.931 20.3622C117.42 19.158 117.164 17.8444 117.164 16.4212C117.164 14.9981 117.42 13.6844 117.931 12.4802C118.46 11.276 119.199 10.2269 120.147 9.33292C121.096 8.4389 122.209 7.74558 123.486 7.25296C124.763 6.76034 126.15 6.51403 127.646 6.51403C129.16 6.51403 130.547 6.76034 131.806 7.25296C133.083 7.74558 134.187 8.4389 135.118 9.33292C136.066 10.2269 136.805 11.276 137.334 12.4802C137.863 13.6662 138.128 14.9798 138.128 16.4212C138.128 17.8444 137.863 19.1671 137.334 20.3896C136.805 21.5938 136.066 22.6429 135.118 23.5369C134.187 24.4127 133.083 25.0969 131.806 25.5895C130.547 26.0821 129.17 26.3284 127.674 26.3284ZM127.646 22.5516C128.504 22.5516 129.288 22.4057 130 22.1138C130.73 21.8218 131.368 21.4022 131.916 20.8548C132.463 20.3075 132.883 19.6598 133.174 18.9117C133.485 18.1636 133.64 17.3335 133.64 16.4212C133.64 15.509 133.485 14.6788 133.174 13.9307C132.883 13.1827 132.463 12.535 131.916 11.9876C131.386 11.4403 130.757 11.0206 130.027 10.7287C129.297 10.4368 128.504 10.2908 127.646 10.2908C126.789 10.2908 125.995 10.4368 125.265 10.7287C124.554 11.0206 123.924 11.4403 123.377 11.9876C122.829 12.535 122.401 13.1827 122.09 13.9307C121.799 14.6788 121.653 15.509 121.653 16.4212C121.653 17.3152 121.799 18.1454 122.09 18.9117C122.401 19.6598 122.82 20.3075 123.349 20.8548C123.897 21.4022 124.535 21.8218 125.265 22.1138C125.995 22.4057 126.789 22.5516 127.646 22.5516Z" fill="#FEFEFE"/>
</svg>
