<svg width="140" height="37" viewBox="0 0 140 37" fill="none" xmlns="http://www.w3.org/2000/svg">
<rect y="5.14478" width="12.2377" height="12.2377" rx="1.78003" fill="#EC892B"/>
<rect y="19.1626" width="19.3578" height="12.2377" rx="1.78003" fill="#EC892B"/>
<path d="M28.3045 27.7725V8.6149H37.6643C40.0727 8.6149 41.879 9.07103 43.0832 9.9833C44.3056 10.8956 44.9168 12.0998 44.9168 13.5959C44.9168 14.5994 44.6705 15.4751 44.1779 16.2232C43.6853 16.953 43.0102 17.5186 42.1527 17.92C41.2951 18.3214 40.3099 18.5221 39.1969 18.5221L39.7169 17.4C40.9211 17.4 41.9885 17.6007 42.919 18.0021C43.8495 18.3853 44.5702 18.96 45.081 19.7263C45.6102 20.4926 45.8747 21.4322 45.8747 22.5452C45.8747 24.1873 45.227 25.4736 43.9316 26.4041C42.6362 27.3163 40.7295 27.7725 38.2117 27.7725H28.3045ZM32.7107 24.4336H37.8833C39.0327 24.4336 39.8994 24.2511 40.4832 23.8862C41.0853 23.5031 41.3864 22.901 41.3864 22.0799C41.3864 21.2771 41.0853 20.6842 40.4832 20.301C39.8994 19.8996 39.0327 19.6989 37.8833 19.6989H32.3823V16.4695H37.117C38.1934 16.4695 39.0145 16.287 39.5801 15.9221C40.1639 15.539 40.4559 14.9643 40.4559 14.198C40.4559 13.4499 40.1639 12.8934 39.5801 12.5285C39.0145 12.1454 38.1934 11.9538 37.117 11.9538H32.7107V24.4336ZM49.2314 27.7725V8.6149H57.5238C59.2389 8.6149 60.7168 8.8977 61.9574 9.46331C63.1981 10.0107 64.156 10.8043 64.8311 11.8443C65.5062 12.8843 65.8437 14.125 65.8437 15.5664C65.8437 16.9895 65.5062 18.221 64.8311 19.261C64.156 20.2828 63.1981 21.0673 61.9574 21.6147C60.7168 22.162 59.2389 22.4357 57.5238 22.4357H51.6945L53.665 20.4926V27.7725H49.2314ZM61.4101 27.7725L56.6207 20.821H61.3553L66.1995 27.7725H61.4101ZM53.665 20.9852L51.6945 18.9052H57.2775C58.6459 18.9052 59.6677 18.6133 60.3427 18.0295C61.0178 17.4274 61.3553 16.6063 61.3553 15.5664C61.3553 14.5081 61.0178 13.6871 60.3427 13.1032C59.6677 12.5194 58.6459 12.2275 57.2775 12.2275H51.6945L53.665 10.1201V20.9852ZM69.3564 27.7725V8.6149H73.79V27.7725H69.3564ZM87.5048 28.1009C86.0269 28.1009 84.6494 27.8637 83.3722 27.3893C82.1133 26.8967 81.0186 26.2034 80.0881 25.3093C79.1576 24.4153 78.4277 23.3662 77.8986 22.162C77.3878 20.9578 77.1323 19.6351 77.1323 18.1937C77.1323 16.7523 77.3878 15.4295 77.8986 14.2253C78.4277 13.0211 79.1576 11.972 80.0881 11.078C81.0368 10.184 82.1407 9.4998 83.3996 9.02542C84.6585 8.5328 86.036 8.28649 87.5321 8.28649C89.1925 8.28649 90.6886 8.57841 92.0205 9.16226C93.3706 9.72786 94.5018 10.5671 95.4141 11.6801L92.5678 14.3074C91.911 13.5594 91.1812 13.0029 90.3784 12.638C89.5756 12.2548 88.6998 12.0633 87.7511 12.0633C86.8571 12.0633 86.036 12.2092 85.288 12.5011C84.5399 12.7931 83.8922 13.2127 83.3448 13.7601C82.7975 14.3074 82.3687 14.9551 82.0586 15.7032C81.7666 16.4513 81.6207 17.2814 81.6207 18.1937C81.6207 19.1059 81.7666 19.9361 82.0586 20.6842C82.3687 21.4322 82.7975 22.0799 83.3448 22.6273C83.8922 23.1746 84.5399 23.5943 85.288 23.8862C86.036 24.1781 86.8571 24.3241 87.7511 24.3241C88.6998 24.3241 89.5756 24.1416 90.3784 23.7767C91.1812 23.3936 91.911 22.8189 92.5678 22.0526L95.4141 24.6799C94.5018 25.7928 93.3706 26.6413 92.0205 27.2251C90.6886 27.809 89.1833 28.1009 87.5048 28.1009ZM102.376 23.3936L102.13 18.2758L111.298 8.6149H116.225L107.96 17.5095L105.496 20.1368L102.376 23.3936ZM98.4081 27.7725V8.6149H102.814V27.7725H98.4081ZM111.517 27.7725L104.703 19.4252L107.604 16.2779L116.69 27.7725H111.517ZM127.277 28.1009C125.763 28.1009 124.358 27.8546 123.062 27.3619C121.785 26.8693 120.672 26.176 119.723 25.282C118.793 24.388 118.063 23.3389 117.534 22.1347C117.023 20.9305 116.768 19.6168 116.768 18.1937C116.768 16.7705 117.023 15.4569 117.534 14.2527C118.063 13.0485 118.802 11.9994 119.751 11.1054C120.7 10.2114 121.813 9.51804 123.09 9.02542C124.367 8.5328 125.754 8.28649 127.25 8.28649C128.764 8.28649 130.151 8.5328 131.41 9.02542C132.687 9.51804 133.791 10.2114 134.721 11.1054C135.67 11.9994 136.409 13.0485 136.938 14.2527C137.467 15.4386 137.732 16.7523 137.732 18.1937C137.732 19.6168 137.467 20.9396 136.938 22.162C136.409 23.3662 135.67 24.4153 134.721 25.3093C133.791 26.1851 132.687 26.8693 131.41 27.3619C130.151 27.8546 128.773 28.1009 127.277 28.1009ZM127.25 24.3241C128.107 24.3241 128.892 24.1781 129.603 23.8862C130.333 23.5943 130.972 23.1746 131.519 22.6273C132.066 22.0799 132.486 21.4322 132.778 20.6842C133.088 19.9361 133.243 19.1059 133.243 18.1937C133.243 17.2814 133.088 16.4513 132.778 15.7032C132.486 14.9551 132.066 14.3074 131.519 13.7601C130.99 13.2127 130.36 12.7931 129.631 12.5011C128.901 12.2092 128.107 12.0633 127.25 12.0633C126.392 12.0633 125.598 12.2092 124.869 12.5011C124.157 12.7931 123.528 13.2127 122.98 13.7601C122.433 14.3074 122.004 14.9551 121.694 15.7032C121.402 16.4513 121.256 17.2814 121.256 18.1937C121.256 19.0877 121.402 19.9179 121.694 20.6842C122.004 21.4322 122.424 22.0799 122.953 22.6273C123.5 23.1746 124.139 23.5943 124.869 23.8862C125.598 24.1781 126.392 24.3241 127.25 24.3241Z" fill="#2F3746"/>
</svg>
